<svg xmlns="http://www.w3.org/2000/svg" width="61.465" height="49.515" viewBox="0 0 61.465 49.515"><defs><style>.a{fill:#fff;}</style></defs><g transform="translate(-720.432 -163.486)"><path class="a" d="M1663.195,188.236q0,11.19-.009,22.381c0,.8.255,1.812-.621,2.26s-1.427-.459-2.009-.937q-6.5-5.345-12.959-10.737a2.393,2.393,0,0,0-1.647-.6c-2.806.02-5.613-.06-8.416.026-3.264.1-4.171-1.173-5.213-3.892a15.1,15.1,0,0,1-.71-4.23,48.374,48.374,0,0,1,.336-11.246,9.561,9.561,0,0,1,1.443-3.713,3.772,3.772,0,0,1,3.453-1.672c2.9,0,5.8-.024,8.7.013a3.3,3.3,0,0,0,2.334-.832c4.293-3.61,8.627-7.173,12.956-10.741.5-.409.969-1.093,1.727-.718s.626,1.187.627,1.877q.01,11.382,0,22.764" transform="translate(-911)"/><path class="a" d="M1692.9,188.4a48.589,48.589,0,0,1-3.028,17.25,23.363,23.363,0,0,1-3.961,6.726c-.554.643-.964.821-1.567.063-.534-.671-1.173-1.259-1.77-1.878-.262-.271-.462-.513-.128-.891,2.952-3.353,4.255-7.45,5.071-11.708a48.057,48.057,0,0,0-1.2-24,18.775,18.775,0,0,0-3.724-6.946c-.429-.482-.345-.794.072-1.2a21.958,21.958,0,0,0,1.79-1.86c.529-.645.873-.475,1.351.062a24.478,24.478,0,0,1,4.824,8.942A51.411,51.411,0,0,1,1692.9,188.4" transform="translate(-911)"/><path class="a" d="M1684.666,188.639a35.081,35.081,0,0,1-2.68,13.535,17.37,17.37,0,0,1-2.518,4.043c-.446.539-.814.734-1.359.089-.594-.705-1.274-1.338-1.922-2-.275-.28-.4-.535-.1-.9,2.414-2.916,3.321-6.438,3.8-10.058a34.825,34.825,0,0,0-.707-13.751,15.856,15.856,0,0,0-3.03-6.432.613.613,0,0,1,.027-.98c.653-.654,1.327-1.293,1.919-2,.541-.645.905-.459,1.356.082a20.283,20.283,0,0,1,3.848,7.727,40.171,40.171,0,0,1,1.358,10.645" transform="translate(-911)"/><path class="a" d="M1676.254,188.482a20.846,20.846,0,0,1-2.178,9.541,18.7,18.7,0,0,1-1.158,1.749c-.359.524-.732.639-1.209.087-.624-.724-1.3-1.4-1.954-2.1-.228-.24-.445-.464-.17-.818a11.132,11.132,0,0,0,2.047-5.783,19.571,19.571,0,0,0-1.005-9.779,4.019,4.019,0,0,0-.61-1.181c-.683-.756-.6-1.324.179-1.959a11.522,11.522,0,0,0,1.5-1.6c.457-.546.8-.449,1.218.052a12.444,12.444,0,0,1,2.017,3.666,23.729,23.729,0,0,1,1.319,8.123" transform="translate(-911)"/></g></svg>