<svg xmlns="http://www.w3.org/2000/svg" xmlns:xlink="http://www.w3.org/1999/xlink" width="56.735" height="49.498" viewBox="0 0 56.735 49.498"><defs><style>.a{fill:none;}.b{clip-path:url(#a);}.c{fill:#fff;}</style><clipPath id="a"><rect class="a" width="56.735" height="49.498" transform="translate(0 0)"/></clipPath></defs><g transform="translate(0 0)"><g class="b"><path class="c" d="M31.8,24.727q0,11.336,0,22.672c0,.715.192,1.585-.6,1.982-.832.416-1.334-.373-1.871-.815q-6.571-5.411-13.11-10.861a2.39,2.39,0,0,0-1.647-.6c-2.806.019-5.615-.062-8.418.026C3,37.227,1.981,36.1.9,33.154a21.534,21.534,0,0,1-.846-6.518,40.251,40.251,0,0,1,.654-9.7A8.338,8.338,0,0,1,2.17,13.848a3.679,3.679,0,0,1,3.263-1.474c3.029,0,6.059-.013,9.088.009a2.48,2.48,0,0,0,1.729-.623Q22.927,6.177,29.646.645c.436-.36.89-.844,1.52-.559.663.3.629.98.629,1.585q.006,11.529,0,23.056"/><path class="c" d="M56.735,19.157a1.528,1.528,0,0,1-.514.673c-1.375,1.375-2.728,2.773-4.144,4.1-.621.584-.7.962-.029,1.588,1.467,1.369,2.839,2.841,4.282,4.238.481.465.491.8,0,1.248A24.359,24.359,0,0,0,54.5,32.836c-.465.523-.8.552-1.31.022-1.411-1.472-2.9-2.872-4.308-4.347-.527-.552-.863-.538-1.382,0-1.413,1.472-2.891,2.88-4.311,4.345-.449.462-.772.552-1.238.031A25.612,25.612,0,0,0,40.063,31c-.51-.462-.44-.8.023-1.248,1.441-1.4,2.812-2.872,4.284-4.236.679-.628.571-.985-.036-1.559-1.435-1.357-2.783-2.808-4.216-4.168-.578-.548-.485-.917.039-1.391a18.667,18.667,0,0,0,1.619-1.625c.54-.627.958-.647,1.544-.024,1.247,1.322,2.559,2.581,3.843,3.867,1.038,1.039,1.037,1.038,2.043.032,1.33-1.331,2.674-2.647,3.983-4,.456-.471.8-.5,1.253-.007.622.683,1.3,1.316,1.95,1.971.156.155.352.286.343.546"/></g></g></svg>